<svg width="32" height="32" viewBox="0 0 32 32" fill="none" xmlns="http://www.w3.org/2000/svg">
<path d="M14.6667 10.6667C13.6058 10.6667 12.5884 11.0881 11.8382 11.8382C11.0881 12.5884 10.6667 13.6058 10.6667 14.6667C10.6667 15.0203 10.5262 15.3594 10.2761 15.6095C10.0261 15.8595 9.68695 16 9.33333 16C8.97971 16 8.64057 15.8595 8.39052 15.6095C8.14047 15.3594 8 15.0203 8 14.6667C8 12.8986 8.70238 11.2029 9.95262 9.95262C11.2029 8.70238 12.8986 8 14.6667 8C15.0203 8 15.3594 8.14048 15.6095 8.39052C15.8595 8.64057 16 8.97971 16 9.33333C16 9.68696 15.8595 10.0261 15.6095 10.2761C15.3594 10.5262 15.0203 10.6667 14.6667 10.6667Z" fill="#FAFAFA"/>
<path d="M14.6667 5.33341C12.1913 5.33341 9.81735 6.31675 8.06701 8.06708C6.31667 9.81742 5.33334 12.1914 5.33334 14.6667C5.33334 15.0204 5.19287 15.3595 4.94282 15.6096C4.69277 15.8596 4.35363 16.0001 4.00001 16.0001C3.64639 16.0001 3.30725 15.8596 3.0572 15.6096C2.80715 15.3595 2.66668 15.0204 2.66668 14.6667C2.66668 11.4842 3.93096 8.4319 6.1814 6.18147C8.43183 3.93103 11.4841 2.66675 14.6667 2.66675C15.0203 2.66675 15.3594 2.80722 15.6095 3.05727C15.8595 3.30732 16 3.64646 16 4.00008C16 4.3537 15.8595 4.69284 15.6095 4.94289C15.3594 5.19294 15.0203 5.33341 14.6667 5.33341ZM3.00001 21.2134C3.07335 20.9994 3.19995 20.8075 3.36789 20.6559C3.53584 20.5043 3.7396 20.3979 3.96001 20.3467L11.96 18.5201C12.1772 18.4708 12.4032 18.4768 12.6175 18.5373C12.8317 18.5979 13.0274 18.7111 13.1867 18.8667C13.3733 19.0401 13.3867 19.0534 14.2533 20.7067C17.1291 19.3816 19.4334 17.0679 20.7467 14.1867C19.0533 13.3334 19.04 13.3334 18.8667 13.1334C18.7111 12.9742 18.5978 12.7785 18.5373 12.5642C18.4767 12.3499 18.4708 12.1239 18.52 11.9067L20.3467 4.00008C20.3978 3.77968 20.5042 3.57591 20.6558 3.40796C20.8074 3.24002 20.9993 3.11342 21.2133 3.04008C21.5247 2.92887 21.8463 2.84848 22.1733 2.80008C22.5103 2.72194 22.8542 2.67728 23.2 2.66675C24.8267 2.66675 26.3867 3.31294 27.5369 4.46316C28.6872 5.61338 29.3333 7.17342 29.3333 8.80008C29.3263 14.2437 27.1607 19.4623 23.3115 23.3115C19.4623 27.1608 14.2436 29.3264 8.80001 29.3334C7.99457 29.3334 7.19702 29.1748 6.45288 28.8665C5.70876 28.5583 5.03262 28.1065 4.46309 27.537C3.89355 26.9675 3.44178 26.2913 3.13355 25.5472C2.82532 24.8031 2.66668 24.0055 2.66668 23.2001C2.66626 22.8607 2.69302 22.5219 2.74668 22.1867C2.80271 21.8556 2.88748 21.5299 3.00001 21.2134Z" fill="#FAFAFA"/>
</svg>
