<svg width="50" height="50" viewBox="0 0 50 50" fill="none" xmlns="http://www.w3.org/2000/svg">
<path d="M20.3125 13.875V16.5156H49.9727C49.9313 15.6641 49.8422 14.5875 49.5234 13.875" fill="#EC1C24"/>
<path d="M48.125 11.2344H20.3125V13.875H49.5234C49.2063 12.8898 48.7344 11.9914 48.125 11.2344Z" fill="#E6E7E8"/>
<path d="M42.1875 8.59375H20.3125V11.2344H48.125C46.8211 9.60156 44.675 8.59375 42.1875 8.59375Z" fill="#EC1C24"/>
<path d="M49.9727 16.5156H20.3125V19.1562H50V17.3961C50 17.2391 49.9898 17.0859 49.9852 16.932C49.982 16.8898 49.9773 16.7812 49.9727 16.5156Z" fill="#E6E7E8"/>
<path d="M20.3125 21.7969H50V19.1562H20.3125V21.7969Z" fill="#EC1C24"/>
<path d="M20.3125 24.4375H50V21.7969H20.3125V24.4375Z" fill="#E6E7E8"/>
<path d="M20.3125 24.4375H50V27.0781H20.3125V24.4375Z" fill="#EC1C24"/>
<path d="M0 27.0781V29.7188H50V27.0781H20.3125H0Z" fill="#E6E7E8"/>
<path d="M0 29.7188H50V32.3594H0V29.7188Z" fill="#EC1C24"/>
<path d="M0.00390625 33.9836C0.00390625 33.9836 -0.003125 34.6234 0.015625 35H49.9844C50.0062 34.6141 49.9961 33.9836 49.9961 33.9836L50 32.3594H0L0.00390625 33.9836Z" fill="#E6E7E8"/>
<path d="M7.8125 42.9688H42.1875C44.682 42.9688 46.7555 42.0625 48.1719 40.2812H1.82031C3.28281 42.1016 5.39531 42.9688 7.80859 42.9688" fill="#EC1C24"/>
<path d="M1.82422 40.2812H48.1758C48.7937 39.4961 49.2552 38.5997 49.5352 37.6406H0.472656C0.757888 38.5968 1.21743 39.4921 1.82812 40.2812" fill="#E6E7E8"/>
<path d="M0.46875 37.6406H49.5312C49.7871 36.7816 49.9392 35.8951 49.9844 35H0.015625C0.0929687 35.9031 0.164844 36.5852 0.46875 37.6406Z" fill="#EC1C24"/>
<path d="M20.3125 8.59375H7.8125C2.63516 8.59375 0 12.4414 0 17.1875V27.0781H20.3125V8.59375Z" fill="#176496"/>
<path d="M2.18593 13.2626L2.61093 12.936L3.03515 13.2626L2.87031 12.7376L3.29296 12.4165H2.77109L2.60937 11.8892L2.44843 12.4165H1.92734L2.35156 12.7376L2.18593 13.2626Z" fill="#FAFAFA"/>
<path d="M4.99375 13.2626L5.41875 12.936L5.84297 13.2626L5.67891 12.7376L6.10078 12.4165H5.57969L5.41797 11.8892L5.25703 12.4165H4.73438L5.15859 12.7376L4.99375 13.2626Z" fill="#FAFAFA"/>
<path d="M8.09141 13.2626L8.51563 12.936L8.94063 13.2626L8.77578 12.7376L9.19766 12.4165H8.67969L8.51563 11.8892L8.35391 12.4165H7.83594L8.25547 12.7376L8.09141 13.2626Z" fill="#FAFAFA"/>
<path d="M11.1664 13.2626L11.5906 12.936L12.0156 13.2626L11.8516 12.7376L12.2734 12.4165H11.75L11.5906 11.8892L11.4297 12.4165H10.9078L11.3312 12.7376L11.1664 13.2626Z" fill="#FAFAFA"/>
<path d="M14.2523 13.2626L14.6773 12.936L15.1016 13.2626L14.9375 12.7376L15.3602 12.4165H14.8375L14.6766 11.8892L14.5156 12.4165H13.9945L14.4164 12.7376L14.2523 13.2626Z" fill="#FAFAFA"/>
<path d="M3.68044 14.6336L4.10466 14.3078L4.52888 14.6336L4.36559 14.1094L4.78747 13.7883H4.26559L4.10388 13.2617L3.94528 13.7883H3.42184L3.8445 14.1094L3.68044 14.6336Z" fill="#FAFAFA"/>
<path d="M6.48903 14.6336L6.91325 14.3078L7.33747 14.6336L7.17341 14.1094L7.59528 13.7883H7.07028L6.91325 13.2617L6.75153 13.7883H6.23044L6.65309 14.1094L6.48903 14.6336Z" fill="#FAFAFA"/>
<path d="M9.58669 14.6336L10.0101 14.3078L10.4344 14.6336L10.2703 14.1094L10.6929 13.7883H10.1719L10.0101 13.2617L9.84841 13.7883H9.32654L9.7492 14.1094L9.58669 14.6336Z" fill="#FAFAFA"/>
<path d="M12.6602 14.6336L13.0852 14.3078L13.5102 14.6336L13.3438 14.1094L13.7672 13.7883H13.2461L13.0844 13.2617L12.9242 13.7883H12.4023L12.825 14.1094L12.6602 14.6336Z" fill="#FAFAFA"/>
<path d="M15.75 14.6336L16.1711 14.3078L16.5953 14.6336L16.4297 14.1094L16.8531 13.7883H16.3328L16.1703 13.2617L16.0102 13.7883H15.4883L15.9109 14.1094L15.75 14.6336Z" fill="#FAFAFA"/>
<path d="M17.4898 13.2626L17.9141 12.936L18.3391 13.2626L18.1742 12.7376L18.5961 12.4165H18.0781L17.9133 11.8892L17.7523 12.4165H17.2266L17.6539 12.7376L17.4898 13.2626Z" fill="#FAFAFA"/>
<path d="M2.14452 24.2344L2.56952 23.9117L2.99374 24.2344L2.82968 23.7141L3.25155 23.3922L2.73046 23.3937L2.56796 22.8672L2.40858 23.3937L1.88593 23.3922L2.30858 23.7141L2.14452 24.2344Z" fill="#FAFAFA"/>
<path d="M4.95312 24.2344L5.37734 23.9117L5.80234 24.2344L5.6375 23.7141L6.05937 23.3922L5.53906 23.3937L5.37656 22.8672L5.21641 23.3937L4.69531 23.3922L5.11719 23.7141L4.95312 24.2344Z" fill="#FAFAFA"/>
<path d="M8.05077 24.2344L8.47499 23.9117L8.89999 24.2344L8.73514 23.7141L9.15702 23.3922L8.6328 23.3937L8.47421 22.8672L8.31327 23.3937L7.79218 23.3922L8.21483 23.7141L8.05077 24.2344Z" fill="#FAFAFA"/>
<path d="M11.1258 24.2344L11.55 23.9117L11.9742 24.2344L11.8125 23.7141L12.232 23.3922L11.7102 23.3937L11.5492 22.8672L11.3883 23.3937L10.8672 23.3922L11.2891 23.7141L11.1258 24.2344Z" fill="#FAFAFA"/>
<path d="M14.2109 24.2344L14.6359 23.9117L15.0609 24.2344L14.8984 23.7141L15.318 23.3922L14.7969 23.3937L14.6352 22.8672L14.475 23.3937L13.9531 23.3922L14.375 23.7141L14.2109 24.2344Z" fill="#FAFAFA"/>
<path d="M17.4484 24.2344L17.8727 23.9117L18.2977 24.2344L18.1328 23.7141L18.5555 23.3922L18.0313 23.3937L17.8719 22.8672L17.7109 23.3937L17.1875 23.3922L17.6125 23.7141L17.4484 24.2344Z" fill="#FAFAFA"/>
<path d="M2.18593 16.0064L2.61093 15.6799L3.03515 16.0064L2.87031 15.4814L3.29296 15.1604L2.77109 15.1619L2.60937 14.6338L2.44843 15.1619L1.92734 15.1604L2.35156 15.4814L2.18593 16.0064Z" fill="#FAFAFA"/>
<path d="M4.99375 16.0064L5.41875 15.6799L5.84297 16.0064L5.67891 15.4814L6.10078 15.1604L5.57969 15.1619L5.41797 14.6338L5.25703 15.1619L4.73438 15.1604L5.15859 15.4814L4.99375 16.0064Z" fill="#FAFAFA"/>
<path d="M8.09141 16.0064L8.51563 15.6799L8.94063 16.0064L8.77578 15.4814L9.19766 15.1604L8.67969 15.1619L8.51563 14.6338L8.35391 15.1619L7.83594 15.1604L8.25547 15.4814L8.09141 16.0064Z" fill="#FAFAFA"/>
<path d="M11.1664 16.0064L11.5906 15.6799L12.0156 16.0064L11.8516 15.4814L12.2734 15.1604L11.75 15.1619L11.5906 14.6338L11.4297 15.1619L10.9078 15.1604L11.3312 15.4814L11.1664 16.0064Z" fill="#FAFAFA"/>
<path d="M14.2523 16.0064L14.6773 15.6799L15.1016 16.0064L14.9375 15.4814L15.3602 15.1604L14.8375 15.1619L14.6766 14.6338L14.5156 15.1619L13.9945 15.1604L14.4164 15.4814L14.2523 16.0064Z" fill="#FAFAFA"/>
<path d="M3.68044 17.3782L4.10466 17.0524L4.52888 17.3782L4.36559 16.854L4.78747 16.5313H4.26559L4.10388 16.0063L3.94528 16.5313H3.42184L3.8445 16.854L3.68044 17.3782Z" fill="#FAFAFA"/>
<path d="M6.48903 17.3782L6.91325 17.0524L7.33747 17.3782L7.17341 16.854L7.59528 16.5313H7.07028L6.91325 16.0063L6.75153 16.5313H6.23044L6.65309 16.854L6.48903 17.3782Z" fill="#FAFAFA"/>
<path d="M9.58669 17.3782L10.0101 17.0524L10.4344 17.3782L10.2703 16.854L10.6929 16.5313H10.1719L10.0101 16.0063L9.84841 16.5313H9.32654L9.7492 16.854L9.58669 17.3782Z" fill="#FAFAFA"/>
<path d="M12.6602 17.3782L13.0852 17.0524L13.5102 17.3782L13.3438 16.854L13.7672 16.5313H13.2461L13.0844 16.0063L12.9242 16.5313H12.4023L12.825 16.854L12.6602 17.3782Z" fill="#FAFAFA"/>
<path d="M15.75 17.3782L16.1711 17.0524L16.5953 17.3782L16.4297 16.854L16.8531 16.5313H16.3328L16.1703 16.0063L16.0102 16.5313H15.4883L15.9109 16.854L15.75 17.3782Z" fill="#FAFAFA"/>
<path d="M17.4898 16.0064L17.9141 15.6799L18.3391 16.0064L18.1742 15.4814L18.5961 15.1604L18.0781 15.1619L17.9133 14.6338L17.7523 15.1619L17.2266 15.1604L17.6539 15.4814L17.4898 16.0064Z" fill="#FAFAFA"/>
<path d="M2.14452 18.75L2.56952 18.4243L2.99374 18.75L2.82889 18.2266L3.25155 17.9047L2.72968 17.9063L2.56796 17.3782L2.40858 17.9063L1.88593 17.9047L2.30858 18.2266L2.14452 18.75Z" fill="#FAFAFA"/>
<path d="M4.95312 18.75L5.37734 18.4243L5.80234 18.75L5.6375 18.2266L6.05937 17.9047L5.53906 17.9063L5.37656 17.3782L5.21641 17.9063L4.69531 17.9047L5.11641 18.2266L4.95312 18.75Z" fill="#FAFAFA"/>
<path d="M8.05077 18.75L8.47499 18.4243L8.89921 18.75L8.73514 18.2266L9.15702 17.9047L8.6328 17.9063L8.47421 17.3782L8.31327 17.9063L7.79218 17.9047L8.21483 18.2266L8.05077 18.75Z" fill="#FAFAFA"/>
<path d="M11.1258 18.75L11.5492 18.4243L11.9742 18.75L11.8125 18.2266L12.232 17.9047L11.7102 17.9063L11.5492 17.3782L11.3883 17.9063L10.8672 17.9047L11.2891 18.2266L11.1258 18.75Z" fill="#FAFAFA"/>
<path d="M14.2109 18.75L14.6359 18.4243L15.0602 18.75L14.8984 18.2266L15.318 17.9047L14.7961 17.9063L14.6352 17.3782L14.475 17.9063L13.9531 17.9047L14.375 18.2266L14.2109 18.75Z" fill="#FAFAFA"/>
<path d="M3.63906 20.1219L4.06328 19.7969L4.48749 20.1219L4.32421 19.6016L4.74531 19.2781H4.22343L4.06249 18.75L3.90234 19.2781H3.38046L3.80312 19.6016L3.63906 20.1219Z" fill="#FAFAFA"/>
<path d="M6.44764 20.1219L6.87186 19.7969L7.29607 20.1219L7.13201 19.6016L7.55389 19.2781H7.03123L6.87108 18.75L6.71014 19.2781H6.18826L6.6117 19.6016L6.44764 20.1219Z" fill="#FAFAFA"/>
<path d="M9.54608 20.1219L9.96873 19.7969L10.3937 20.1219L10.2265 19.6016L10.6515 19.2781H10.1305L9.96873 18.75L9.80779 19.2781H9.28592L9.70858 19.6016L9.54608 20.1219Z" fill="#FAFAFA"/>
<path d="M12.6172 20.1219L13.0437 19.7969L13.4687 20.1219L13.3047 19.6016L13.7258 19.2781H13.2047L13.043 18.75L12.8828 19.2781H12.3609L12.7836 19.6016L12.6172 20.1219Z" fill="#FAFAFA"/>
<path d="M15.7031 20.1219L16.1297 19.7969L16.5547 20.1219L16.3898 19.6016L16.8133 19.2781H16.2922L16.1297 18.75L15.9687 19.2781H15.4469L15.8695 19.6016L15.7031 20.1219Z" fill="#FAFAFA"/>
<path d="M17.4484 18.75L17.8727 18.4243L18.2969 18.75L18.1328 18.2266L18.5555 17.9047L18.0313 17.9063L17.8719 17.3782L17.7109 17.9063L17.1875 17.9047L17.6125 18.2266L17.4484 18.75Z" fill="#FAFAFA"/>
<path d="M2.14452 21.4947L2.56952 21.1721L2.99374 21.4947L2.82889 20.9705L3.25155 20.6486L2.72968 20.6502L2.56796 20.1221L2.40858 20.6502L1.88593 20.6486L2.30858 20.9705L2.14452 21.4947Z" fill="#FAFAFA"/>
<path d="M4.95312 21.4947L5.37734 21.1721L5.80234 21.4947L5.6375 20.9705L6.05937 20.6486L5.53906 20.6502L5.37656 20.1221L5.21641 20.6502L4.69531 20.6486L5.11641 20.9705L4.95312 21.4947Z" fill="#FAFAFA"/>
<path d="M8.05077 21.4947L8.47499 21.1721L8.89921 21.4947L8.73514 20.9705L9.15702 20.6486L8.6328 20.6502L8.47421 20.1221L8.31327 20.6502L7.79218 20.6486L8.21483 20.9705L8.05077 21.4947Z" fill="#FAFAFA"/>
<path d="M11.1258 21.4947L11.5492 21.1721L11.9742 21.4947L11.8125 20.9705L12.232 20.6486L11.7102 20.6502L11.5492 20.1221L11.3883 20.6502L10.8672 20.6486L11.2891 20.9705L11.1258 21.4947Z" fill="#FAFAFA"/>
<path d="M14.2109 21.4947L14.6359 21.1721L15.0602 21.4947L14.8984 20.9705L15.318 20.6486L14.7961 20.6502L14.6352 20.1221L14.475 20.6502L13.9531 20.6486L14.375 20.9705L14.2109 21.4947Z" fill="#FAFAFA"/>
<path d="M3.63906 22.8673L4.06328 22.5407L4.48749 22.8673L4.32421 22.3423L4.74531 22.0235H4.22343L4.06249 21.4946L3.90234 22.0235H3.38046L3.80312 22.3423L3.63906 22.8673Z" fill="#FAFAFA"/>
<path d="M6.44764 22.8673L6.87186 22.5407L7.29607 22.8673L7.13201 22.3423L7.55389 22.0235H7.03123L6.87108 21.4946L6.71014 22.0235H6.18826L6.6117 22.3423L6.44764 22.8673Z" fill="#FAFAFA"/>
<path d="M9.54608 22.8673L9.96873 22.5407L10.3937 22.8673L10.2265 22.3423L10.6515 22.0235H10.1305L9.96873 21.4946L9.80779 22.0235H9.28592L9.70858 22.3423L9.54608 22.8673Z" fill="#FAFAFA"/>
<path d="M12.6172 22.8673L13.0437 22.5407L13.4687 22.8673L13.3047 22.3423L13.7258 22.0235H13.2047L13.043 21.4946L12.8828 22.0235H12.3609L12.7836 22.3423L12.6172 22.8673Z" fill="#FAFAFA"/>
<path d="M15.7031 22.8673L16.1297 22.5407L16.5547 22.8673L16.3898 22.3423L16.8133 22.0235H16.2922L16.1297 21.4946L15.9687 22.0235H15.4469L15.8695 22.3423L15.7031 22.8673Z" fill="#FAFAFA"/>
<path d="M17.4484 21.4947L17.8727 21.1721L18.2969 21.4947L18.1328 20.9705L18.5555 20.6486L18.0313 20.6502L17.8719 20.1221L17.7109 20.6502L17.1875 20.6486L17.6125 20.9705L17.4484 21.4947Z" fill="#FAFAFA"/>
</svg>
