<svg width="26" height="34" viewBox="0 0 26 34" fill="none" xmlns="http://www.w3.org/2000/svg">
<path d="M8.75004 19.125C8.75004 19.6886 8.52616 20.2291 8.12765 20.6276C7.72913 21.0261 7.18863 21.25 6.62505 21.25C6.06147 21.25 5.52097 21.0261 5.12246 20.6276C4.72394 20.2291 4.50006 19.6886 4.50006 19.125C4.50006 18.5614 4.72394 18.0209 5.12246 17.6224C5.52097 17.2239 6.06147 17 6.62505 17C7.18863 17 7.72913 17.2239 8.12765 17.6224C8.52616 18.0209 8.75004 18.5614 8.75004 19.125Z" fill="white"/>
<path d="M8.75004 25.5C8.75004 26.0636 8.52616 26.6041 8.12765 27.0026C7.72913 27.4011 7.18863 27.625 6.62505 27.625C6.06147 27.625 5.52097 27.4011 5.12246 27.0026C4.72394 26.6041 4.50006 26.0636 4.50006 25.5C4.50006 24.9364 4.72394 24.3959 5.12246 23.9974C5.52097 23.5989 6.06147 23.375 6.62505 23.375C7.18863 23.375 7.72913 23.5989 8.12765 23.9974C8.52616 24.3959 8.75004 24.9364 8.75004 25.5Z" fill="white"/>
<path d="M19.375 21.25C19.9386 21.25 20.4791 21.0261 20.8776 20.6276C21.2761 20.2291 21.5 19.6886 21.5 19.125C21.5 18.5614 21.2761 18.0209 20.8776 17.6224C20.4791 17.2239 19.9386 17 19.375 17C18.8114 17 18.2709 17.2239 17.8724 17.6224C17.4739 18.0209 17.25 18.5614 17.25 19.125C17.25 19.6886 17.4739 20.2291 17.8724 20.6276C18.2709 21.0261 18.8114 21.25 19.375 21.25Z" fill="white"/>
<path d="M21.5 25.5C21.5 26.0636 21.2761 26.6041 20.8776 27.0026C20.4791 27.4011 19.9386 27.625 19.375 27.625C18.8114 27.625 18.2709 27.4011 17.8724 27.0026C17.4739 26.6041 17.25 26.0636 17.25 25.5C17.25 24.9364 17.4739 24.3959 17.8724 23.9974C18.2709 23.5989 18.8114 23.375 19.375 23.375C19.9386 23.375 20.4791 23.5989 20.8776 23.9974C21.2761 24.3959 21.5 24.9364 21.5 25.5Z" fill="white"/>
<path d="M13 21.25C13.5636 21.25 14.1041 21.0261 14.5026 20.6276C14.9011 20.2291 15.125 19.6886 15.125 19.125C15.125 18.5614 14.9011 18.0209 14.5026 17.6224C14.1041 17.2239 13.5636 17 13 17C12.4364 17 11.8959 17.2239 11.4974 17.6224C11.0989 18.0209 10.875 18.5614 10.875 19.125C10.875 19.6886 11.0989 20.2291 11.4974 20.6276C11.8959 21.0261 12.4364 21.25 13 21.25Z" fill="white"/>
<path d="M15.125 25.5C15.125 26.0636 14.9011 26.6041 14.5026 27.0026C14.1041 27.4011 13.5636 27.625 13 27.625C12.4364 27.625 11.8959 27.4011 11.4974 27.0026C11.0989 26.6041 10.875 26.0636 10.875 25.5C10.875 24.9364 11.0989 24.3959 11.4974 23.9974C11.8959 23.5989 12.4364 23.375 13 23.375C13.5636 23.375 14.1041 23.5989 14.5026 23.9974C14.9011 24.3959 15.125 24.9364 15.125 25.5Z" fill="white"/>
<path d="M7.68755 4.25C6.84217 4.25 6.03142 4.58582 5.43365 5.18359C4.83588 5.78136 4.50006 6.59211 4.50006 7.43749V9.56248C4.50006 10.4078 4.83588 11.2186 5.43365 11.8164C6.03142 12.4141 6.84217 12.75 7.68755 12.75H18.3125C19.1579 12.75 19.9686 12.4141 20.5664 11.8164C21.1642 11.2186 21.5 10.4078 21.5 9.56248V7.43749C21.5 6.59211 21.1642 5.78136 20.5664 5.18359C19.9686 4.58582 19.1579 4.25 18.3125 4.25H7.68755ZM6.62505 7.43749C6.62505 7.15569 6.73699 6.88544 6.93625 6.68619C7.13551 6.48693 7.40576 6.37499 7.68755 6.37499H18.3125C18.5943 6.37499 18.8645 6.48693 19.0638 6.68619C19.2631 6.88544 19.375 7.15569 19.375 7.43749V9.56248C19.375 9.84427 19.2631 10.1145 19.0638 10.3138C18.8645 10.513 18.5943 10.625 18.3125 10.625H7.68755C7.40576 10.625 7.13551 10.513 6.93625 10.3138C6.73699 10.1145 6.62505 9.84427 6.62505 9.56248V7.43749Z" fill="white"/>
<path d="M25.7499 28.6876C25.7499 30.0966 25.1902 31.4478 24.194 32.4441C23.1977 33.4404 21.8464 34.0001 20.4375 34.0001H5.56254C4.15358 34.0001 2.80233 33.4404 1.80605 32.4441C0.809767 31.4478 0.250061 30.0966 0.250061 28.6876V5.31272C0.250061 3.90376 0.809767 2.55251 1.80605 1.55623C2.80233 0.55995 4.15358 0.000244141 5.56254 0.000244141H20.4375C21.8464 0.000244141 23.1977 0.55995 24.194 1.55623C25.1902 2.55251 25.7499 3.90376 25.7499 5.31272V28.6876ZM23.625 5.31272C23.625 4.46735 23.2891 3.6566 22.6914 3.05883C22.0936 2.46106 21.2828 2.12523 20.4375 2.12523H5.56254C4.71716 2.12523 3.90641 2.46106 3.30864 3.05883C2.71087 3.6566 2.37505 4.46735 2.37505 5.31272V28.6876C2.37505 29.533 2.71087 30.3437 3.30864 30.9415C3.90641 31.5393 4.71716 31.8751 5.56254 31.8751H20.4375C21.2828 31.8751 22.0936 31.5393 22.6914 30.9415C23.2891 30.3437 23.625 29.533 23.625 28.6876V5.31272Z" fill="white"/>
</svg>
