<svg width="18" height="24" viewBox="0 0 18 24" fill="none" xmlns="http://www.w3.org/2000/svg">
<path d="M6 13.5C6 13.8978 5.84197 14.2794 5.56066 14.5607C5.27936 14.842 4.89783 15 4.5 15C4.10218 15 3.72064 14.842 3.43934 14.5607C3.15804 14.2794 3 13.8978 3 13.5C3 13.1022 3.15804 12.7206 3.43934 12.4393C3.72064 12.158 4.10218 12 4.5 12C4.89783 12 5.27936 12.158 5.56066 12.4393C5.84197 12.7206 6 13.1022 6 13.5Z" fill="white"/>
<path d="M6 18C6 18.3978 5.84197 18.7794 5.56066 19.0607C5.27936 19.342 4.89783 19.5 4.5 19.5C4.10218 19.5 3.72064 19.342 3.43934 19.0607C3.15804 18.7794 3 18.3978 3 18C3 17.6022 3.15804 17.2206 3.43934 16.9393C3.72064 16.658 4.10218 16.5 4.5 16.5C4.89783 16.5 5.27936 16.658 5.56066 16.9393C5.84197 17.2206 6 17.6022 6 18Z" fill="white"/>
<path d="M13.5 15C13.8978 15 14.2794 14.842 14.5607 14.5607C14.842 14.2794 15 13.8978 15 13.5C15 13.1022 14.842 12.7206 14.5607 12.4393C14.2794 12.158 13.8978 12 13.5 12C13.1022 12 12.7206 12.158 12.4393 12.4393C12.158 12.7206 12 13.1022 12 13.5C12 13.8978 12.158 14.2794 12.4393 14.5607C12.7206 14.842 13.1022 15 13.5 15Z" fill="white"/>
<path d="M15 18C15 18.3978 14.842 18.7794 14.5607 19.0607C14.2794 19.342 13.8978 19.5 13.5 19.5C13.1022 19.5 12.7206 19.342 12.4393 19.0607C12.158 18.7794 12 18.3978 12 18C12 17.6022 12.158 17.2206 12.4393 16.9393C12.7206 16.658 13.1022 16.5 13.5 16.5C13.8978 16.5 14.2794 16.658 14.5607 16.9393C14.842 17.2206 15 17.6022 15 18Z" fill="white"/>
<path d="M9 15C9.39783 15 9.77936 14.842 10.0607 14.5607C10.342 14.2794 10.5 13.8978 10.5 13.5C10.5 13.1022 10.342 12.7206 10.0607 12.4393C9.77936 12.158 9.39783 12 9 12C8.60218 12 8.22064 12.158 7.93934 12.4393C7.65804 12.7206 7.5 13.1022 7.5 13.5C7.5 13.8978 7.65804 14.2794 7.93934 14.5607C8.22064 14.842 8.60218 15 9 15Z" fill="white"/>
<path d="M10.5 18C10.5 18.3978 10.342 18.7794 10.0607 19.0607C9.77936 19.342 9.39783 19.5 9 19.5C8.60218 19.5 8.22064 19.342 7.93934 19.0607C7.65804 18.7794 7.5 18.3978 7.5 18C7.5 17.6022 7.65804 17.2206 7.93934 16.9393C8.22064 16.658 8.60218 16.5 9 16.5C9.39783 16.5 9.77936 16.658 10.0607 16.9393C10.342 17.2206 10.5 17.6022 10.5 18Z" fill="white"/>
<path d="M5.25 3C4.65326 3 4.08097 3.23705 3.65901 3.65901C3.23705 4.08097 3 4.65326 3 5.25V6.75C3 7.34674 3.23705 7.91903 3.65901 8.34099C4.08097 8.76295 4.65326 9 5.25 9H12.75C13.3467 9 13.919 8.76295 14.341 8.34099C14.7629 7.91903 15 7.34674 15 6.75V5.25C15 4.65326 14.7629 4.08097 14.341 3.65901C13.919 3.23705 13.3467 3 12.75 3H5.25ZM4.5 5.25C4.5 5.05109 4.57902 4.86032 4.71967 4.71967C4.86032 4.57902 5.05109 4.5 5.25 4.5H12.75C12.9489 4.5 13.1397 4.57902 13.2803 4.71967C13.421 4.86032 13.5 5.05109 13.5 5.25V6.75C13.5 6.94891 13.421 7.13968 13.2803 7.28033C13.1397 7.42098 12.9489 7.5 12.75 7.5H5.25C5.05109 7.5 4.86032 7.42098 4.71967 7.28033C4.57902 7.13968 4.5 6.94891 4.5 6.75V5.25Z" fill="white"/>
<path d="M18 20.25C18 21.2446 17.6049 22.1984 16.9016 22.9016C16.1984 23.6049 15.2446 24 14.25 24H3.75C2.75544 24 1.80161 23.6049 1.09835 22.9016C0.395088 22.1984 0 21.2446 0 20.25V3.75C0 2.75544 0.395088 1.80161 1.09835 1.09835C1.80161 0.395088 2.75544 0 3.75 0H14.25C15.2446 0 16.1984 0.395088 16.9016 1.09835C17.6049 1.80161 18 2.75544 18 3.75V20.25ZM16.5 3.75C16.5 3.15326 16.2629 2.58097 15.841 2.15901C15.419 1.73705 14.8467 1.5 14.25 1.5H3.75C3.15326 1.5 2.58097 1.73705 2.15901 2.15901C1.73705 2.58097 1.5 3.15326 1.5 3.75V20.25C1.5 20.8467 1.73705 21.419 2.15901 21.841C2.58097 22.2629 3.15326 22.5 3.75 22.5H14.25C14.8467 22.5 15.419 22.2629 15.841 21.841C16.2629 21.419 16.5 20.8467 16.5 20.25V3.75Z" fill="white"/>
</svg>
