<svg width="26" height="26" viewBox="0 0 26 26" fill="none" xmlns="http://www.w3.org/2000/svg">
<path d="M13 8.17847C12.3668 8.17847 11.7399 8.30318 11.1549 8.54548C10.57 8.78778 10.0384 9.14292 9.59073 9.59063C9.14302 10.0383 8.78788 10.5699 8.54558 11.1548C8.30328 11.7398 8.17857 12.3667 8.17857 12.9999C8.17857 13.6331 8.30328 14.26 8.54558 14.845C8.78788 15.4299 9.14302 15.9614 9.59073 16.4092C10.0384 16.8569 10.57 17.212 11.1549 17.4543C11.7399 17.6966 12.3668 17.8213 13 17.8213C14.2787 17.8213 15.5051 17.3134 16.4093 16.4092C17.3135 15.505 17.8214 14.2786 17.8214 12.9999C17.8214 11.7212 17.3135 10.4948 16.4093 9.59063C15.5051 8.68644 14.2787 8.17847 13 8.17847ZM9.78571 12.9999C9.78571 12.5778 9.86885 12.1598 10.0304 11.7698C10.1919 11.3799 10.4287 11.0255 10.7272 10.7271C11.0256 10.4286 11.38 10.1918 11.7699 10.0303C12.1599 9.86875 12.5779 9.78561 13 9.78561C13.4221 9.78561 13.8401 9.86875 14.2301 10.0303C14.62 10.1918 14.9744 10.4286 15.2728 10.7271C15.5713 11.0255 15.8081 11.3799 15.9696 11.7698C16.1311 12.1598 16.2143 12.5778 16.2143 12.9999C16.2143 13.8524 15.8756 14.6699 15.2728 15.2727C14.67 15.8755 13.8525 16.2142 13 16.2142C12.1475 16.2142 11.33 15.8755 10.7272 15.2727C10.1244 14.6699 9.78571 13.8524 9.78571 12.9999Z" fill="white"/>
<path d="M21.2607 21.9946L19.4093 21.1814C19.1458 21.0669 18.8592 21.0156 18.5723 21.0316C18.2854 21.0476 18.0063 21.1305 17.7571 21.2735C17.2568 21.5628 16.9375 22.0739 16.8743 22.6493L16.6514 24.6635C16.629 24.866 16.5446 25.0565 16.4098 25.2091C16.275 25.3618 16.0963 25.4691 15.8982 25.5164C13.9921 25.9708 12.0058 25.9708 10.0996 25.5164C9.90176 25.4689 9.72334 25.3615 9.58873 25.2089C9.45412 25.0563 9.36988 24.8658 9.3475 24.6635L9.12464 22.6525C9.09264 22.3694 8.99475 22.0979 8.83883 21.8595C8.6829 21.6212 8.47328 21.4227 8.22679 21.28C7.98054 21.1376 7.70427 21.055 7.42027 21.039C7.13626 21.023 6.85247 21.074 6.59179 21.1878L4.74036 22.001C4.5532 22.0833 4.3451 22.1053 4.14489 22.064C3.94467 22.0227 3.76224 21.9202 3.62286 21.7707C2.29029 20.3427 1.29866 18.6312 0.7225 16.765C0.661917 16.5688 0.663814 16.3587 0.727928 16.1636C0.792042 15.9686 0.915202 15.7983 1.08036 15.6764L2.71643 14.4678C2.94675 14.2986 3.13403 14.0776 3.2631 13.8226C3.39218 13.5676 3.45943 13.2858 3.45943 13C3.45943 12.7142 3.39218 12.4324 3.2631 12.1774C3.13403 11.9224 2.94675 11.7013 2.71643 11.5321L1.08036 10.3268C0.914989 10.2047 0.791692 10.0343 0.727568 9.83903C0.663444 9.64378 0.661673 9.43341 0.7225 9.23711C1.29986 7.37247 2.2922 5.66289 3.625 4.23675C3.76451 4.0874 3.947 3.9851 4.14721 3.94402C4.34742 3.90295 4.55545 3.92512 4.7425 4.00747L6.58536 4.81854C6.84757 4.93139 7.13256 4.9813 7.41752 4.96426C7.70248 4.94723 7.9795 4.86373 8.2264 4.72044C8.4733 4.57715 8.68324 4.37805 8.8394 4.13908C8.99556 3.90012 9.09361 3.62791 9.12571 3.34425L9.35071 1.33211C9.37337 1.12741 9.45936 0.934898 9.5967 0.781429C9.73403 0.627961 9.91585 0.521197 10.1168 0.476037C11.0607 0.266037 12.0239 0.154608 13.0139 0.142822C13.9804 0.153537 14.9425 0.266037 15.8854 0.476037C16.0865 0.521111 16.2685 0.62799 16.4059 0.781697C16.5433 0.935404 16.6291 1.12824 16.6514 1.33318L16.8754 3.34532C16.9236 3.79155 17.1349 4.20427 17.4686 4.50439C17.8024 4.80451 18.2351 4.97093 18.6839 4.97175C18.9336 4.97175 19.1811 4.91925 19.4125 4.81747L21.2554 4.00639C21.4424 3.92404 21.6504 3.90187 21.8506 3.94295C22.0509 3.98403 22.2333 4.08633 22.3729 4.23568C23.7053 5.66188 24.6973 7.37147 25.2743 9.23604C25.335 9.43209 25.3333 9.64215 25.2693 9.83717C25.2054 10.0322 25.0825 10.2025 24.9175 10.3246L23.2836 11.5321C22.8175 11.875 22.5357 12.4203 22.5357 13C22.5357 13.5785 22.8175 14.1239 23.2846 14.4678L24.9196 15.6743C25.2582 15.925 25.4018 16.3621 25.2775 16.7639C24.7006 18.6282 23.709 20.3378 22.3771 21.7643C22.2378 21.9138 22.0553 22.0163 21.8551 22.0576C21.6549 22.0988 21.4468 22.0768 21.2596 21.9946H21.2607ZM15.4246 21.7825C15.6803 20.9818 16.2245 20.3047 16.9514 19.8828C17.4191 19.6134 17.9434 19.4574 18.4823 19.4274C19.0212 19.3975 19.5596 19.4944 20.0543 19.7103L21.4943 20.3425C22.4192 19.2715 23.1352 18.0366 23.605 16.7018L22.3311 15.7621V15.761C21.8974 15.4426 21.5445 15.0267 21.3009 14.547C21.0573 14.0672 20.9298 13.537 20.9286 12.9989C20.9286 11.8985 21.4611 10.8775 22.3289 10.2389L22.3311 10.2378L23.6029 9.29818C23.1327 7.96359 22.4164 6.72903 21.4911 5.65854L20.0629 6.28639L20.0607 6.28747C19.6257 6.48032 19.1575 6.57889 18.6829 6.57889C17.8388 6.57763 17.0248 6.26524 16.3966 5.70149C15.7684 5.13773 15.3701 4.36219 15.2779 3.52318V3.52104L15.1032 1.95675C14.414 1.82838 13.715 1.7592 13.0139 1.74997C12.2918 1.75961 11.5889 1.82925 10.8979 1.95675L10.7232 3.52211C10.6632 4.05628 10.4786 4.56892 10.1844 5.0188C9.8902 5.46868 9.49455 5.84327 9.02926 6.11244C8.56396 6.38161 8.04201 6.53786 7.50535 6.56863C6.96869 6.5994 6.43229 6.50383 5.93929 6.28961L4.50786 5.65961C3.58249 6.73007 2.86617 7.96464 2.39607 9.29925L3.67107 10.2389C4.10388 10.5576 4.45571 10.9736 4.69819 11.4533C4.94067 11.933 5.067 12.463 5.067 13.0005C5.067 13.538 4.94067 14.068 4.69819 14.5477C4.45571 15.0274 4.10388 15.4434 3.67107 15.7621L2.39607 16.7028C2.86529 18.0396 3.58125 19.2763 4.50679 20.3489L5.94786 19.7168C6.4393 19.5016 6.97444 19.4051 7.51008 19.4348C8.04572 19.4646 8.56686 19.6199 9.03143 19.8882C9.4958 20.1564 9.89078 20.5299 10.1846 20.9785C10.4784 21.4272 10.6629 21.9385 10.7232 22.4714V22.4768L10.8968 24.0453C12.2864 24.3185 13.7146 24.3185 15.1043 24.0453L15.2779 22.4735C15.3036 22.2378 15.3529 22.0053 15.4257 21.7825H15.4246Z" fill="white"/>
</svg>
