<svg width="46" height="46" viewBox="0 0 46 46" fill="none" xmlns="http://www.w3.org/2000/svg">
<path d="M23 5.03125C19.4461 5.03125 15.9721 6.0851 13.0171 8.05953C10.0622 10.034 7.75906 12.8403 6.39905 16.1237C5.03904 19.407 4.68319 23.0199 5.37652 26.5055C6.06985 29.9911 7.78121 33.1929 10.2942 35.7058C12.8072 38.2188 16.0089 39.9302 19.4945 40.6235C22.9801 41.3168 26.593 40.961 29.8764 39.601C33.1597 38.241 35.966 35.9379 37.9405 32.9829C39.9149 30.028 40.9688 26.5539 40.9688 23C40.9634 18.236 39.0685 13.6687 35.6999 10.3001C32.3313 6.93148 27.764 5.03662 23 5.03125ZM23 39.5313C19.7304 39.5313 16.5343 38.5617 13.8157 36.7452C11.0972 34.9288 8.97834 32.3469 7.72712 29.3262C6.47591 26.3055 6.14854 22.9817 6.7864 19.7749C7.42426 16.5682 8.99871 13.6226 11.3106 11.3106C13.6226 8.9987 16.5682 7.42426 19.7749 6.78639C22.9817 6.14853 26.3056 6.47591 29.3262 7.72712C32.3469 8.97833 34.9288 11.0972 36.7452 13.8157C38.5617 16.5343 39.5313 19.7304 39.5313 23C39.5263 27.3828 37.783 31.5847 34.6839 34.6838C31.5847 37.783 27.3828 39.5263 23 39.5313ZM29.4688 26.5938C29.4675 27.7371 29.0127 28.8333 28.2042 29.6417C27.3958 30.4502 26.2996 30.905 25.1563 30.9063H23.7188V33.0625C23.7188 33.2531 23.643 33.4359 23.5082 33.5707C23.3734 33.7055 23.1906 33.7813 23 33.7813C22.8094 33.7813 22.6266 33.7055 22.4918 33.5707C22.357 33.4359 22.2813 33.2531 22.2813 33.0625V30.9063H18.6875C18.4969 30.9063 18.3141 30.8305 18.1793 30.6957C18.0445 30.5609 17.9688 30.3781 17.9688 30.1875C17.9688 29.9969 18.0445 29.8141 18.1793 29.6793C18.3141 29.5445 18.4969 29.4688 18.6875 29.4688H25.1563C25.9188 29.4688 26.65 29.1658 27.1892 28.6267C27.7284 28.0875 28.0313 27.3562 28.0313 26.5938C28.0313 25.8313 27.7284 25.1 27.1892 24.5608C26.65 24.0217 25.9188 23.7188 25.1563 23.7188H20.8438C19.7 23.7188 18.6031 23.2644 17.7944 22.4557C16.9856 21.6469 16.5313 20.55 16.5313 19.4063C16.5313 18.2625 16.9856 17.1656 17.7944 16.3569C18.6031 15.5481 19.7 15.0938 20.8438 15.0938H22.2813V12.9375C22.2813 12.7469 22.357 12.5641 22.4918 12.4293C22.6266 12.2945 22.8094 12.2188 23 12.2188C23.1906 12.2188 23.3734 12.2945 23.5082 12.4293C23.643 12.5641 23.7188 12.7469 23.7188 12.9375V15.0938H27.3125C27.5031 15.0938 27.6859 15.1695 27.8207 15.3043C27.9555 15.4391 28.0313 15.6219 28.0313 15.8125C28.0313 16.0031 27.9555 16.1859 27.8207 16.3207C27.6859 16.4555 27.5031 16.5313 27.3125 16.5313H20.8438C20.0813 16.5313 19.35 16.8342 18.8108 17.3733C18.2717 17.9125 17.9688 18.6438 17.9688 19.4063C17.9688 20.1687 18.2717 20.9 18.8108 21.4392C19.35 21.9783 20.0813 22.2813 20.8438 22.2813H25.1563C26.2996 22.2825 27.3958 22.7373 28.2042 23.5458C29.0127 24.3542 29.4675 25.4504 29.4688 26.5938Z" fill="white"/>
</svg>
