<svg width="40" height="40" viewBox="0 0 40 40" fill="none" xmlns="http://www.w3.org/2000/svg">
<path d="M20 4.375C16.9097 4.375 13.8887 5.29139 11.3192 7.00829C8.7497 8.72518 6.74701 11.1655 5.56439 14.0206C4.38177 16.8757 4.07234 20.0173 4.67524 23.0483C5.27813 26.0792 6.76627 28.8633 8.95146 31.0485C11.1367 33.2337 13.9208 34.7219 16.9517 35.3248C19.9827 35.9277 23.1243 35.6182 25.9794 34.4356C28.8345 33.253 31.2748 31.2503 32.9917 28.6808C34.7086 26.1113 35.625 23.0903 35.625 20C35.6203 15.8574 33.9726 11.8859 31.0434 8.95662C28.1141 6.02737 24.1426 4.37967 20 4.375ZM20 34.375C17.1569 34.375 14.3776 33.5319 12.0137 31.9524C9.64973 30.3728 7.80725 28.1278 6.71924 25.5011C5.63123 22.8744 5.34656 19.9841 5.90122 17.1956C6.45588 14.4071 7.82497 11.8457 9.83535 9.83534C11.8457 7.82496 14.4071 6.45587 17.1956 5.90121C19.9841 5.34655 22.8744 5.63122 25.5011 6.71923C28.1278 7.80724 30.3728 9.64972 31.9524 12.0137C33.5319 14.3776 34.375 17.1569 34.375 20C34.3707 23.8112 32.8548 27.465 30.1599 30.1599C27.465 32.8548 23.8112 34.3707 20 34.375ZM25.625 23.125C25.6239 24.1192 25.2284 25.0724 24.5254 25.7754C23.8224 26.4784 22.8692 26.8739 21.875 26.875H20.625V28.75C20.625 28.9158 20.5592 29.0747 20.4419 29.1919C20.3247 29.3092 20.1658 29.375 20 29.375C19.8342 29.375 19.6753 29.3092 19.5581 29.1919C19.4409 29.0747 19.375 28.9158 19.375 28.75V26.875H16.25C16.0842 26.875 15.9253 26.8092 15.8081 26.6919C15.6909 26.5747 15.625 26.4158 15.625 26.25C15.625 26.0842 15.6909 25.9253 15.8081 25.8081C15.9253 25.6908 16.0842 25.625 16.25 25.625H21.875C22.538 25.625 23.1739 25.3616 23.6428 24.8928C24.1116 24.4239 24.375 23.788 24.375 23.125C24.375 22.462 24.1116 21.8261 23.6428 21.3572C23.1739 20.8884 22.538 20.625 21.875 20.625H18.125C17.1304 20.625 16.1766 20.2299 15.4734 19.5267C14.7701 18.8234 14.375 17.8696 14.375 16.875C14.375 15.8804 14.7701 14.9266 15.4734 14.2233C16.1766 13.5201 17.1304 13.125 18.125 13.125H19.375V11.25C19.375 11.0842 19.4409 10.9253 19.5581 10.8081C19.6753 10.6908 19.8342 10.625 20 10.625C20.1658 10.625 20.3247 10.6908 20.4419 10.8081C20.5592 10.9253 20.625 11.0842 20.625 11.25V13.125H23.75C23.9158 13.125 24.0747 13.1908 24.1919 13.3081C24.3092 13.4253 24.375 13.5842 24.375 13.75C24.375 13.9158 24.3092 14.0747 24.1919 14.1919C24.0747 14.3092 23.9158 14.375 23.75 14.375H18.125C17.462 14.375 16.8261 14.6384 16.3572 15.1072C15.8884 15.5761 15.625 16.212 15.625 16.875C15.625 17.538 15.8884 18.1739 16.3572 18.6428C16.8261 19.1116 17.462 19.375 18.125 19.375H21.875C22.8692 19.3761 23.8224 19.7716 24.5254 20.4746C25.2284 21.1776 25.6239 22.1308 25.625 23.125Z" fill="white"/>
</svg>
