<svg width="42" height="42" viewBox="0 0 42 42" fill="none" xmlns="http://www.w3.org/2000/svg">
<path d="M17.6519 10.3123L13.3186 14.6456C13.2176 14.7466 13.1375 14.8666 13.0828 14.9985C13.0281 15.1305 13 15.272 13 15.4148C13 15.7033 13.1146 15.98 13.3186 16.184C13.5226 16.388 13.7993 16.5026 14.0878 16.5026C14.3763 16.5026 14.6529 16.388 14.8569 16.184L17.3378 13.6923L17.3378 26.2481C17.3378 26.5355 17.4519 26.811 17.6551 27.0142C17.8582 27.2173 18.1338 27.3315 18.4211 27.3315C18.7084 27.3315 18.984 27.2173 19.1871 27.0142C19.3903 26.811 19.5044 26.5355 19.5044 26.2481L19.5044 11.0815C19.5034 10.8676 19.439 10.6588 19.3195 10.4815C19.2 10.3041 19.0306 10.1661 18.8328 10.0848C18.6355 10.0018 18.418 9.97918 18.2079 10.0197C17.9977 10.0602 17.8043 10.162 17.6519 10.3123ZM21.6711 15.4148L21.6711 30.5815C21.6722 30.7954 21.7365 31.0041 21.856 31.1815C21.9756 31.3589 22.1449 31.4969 22.3428 31.5781C22.5401 31.6611 22.7575 31.6838 22.9676 31.6433C23.1778 31.6028 23.3713 31.501 23.5236 31.3506L27.8569 27.0173C27.9585 26.9166 28.0391 26.7968 28.0941 26.6648C28.1491 26.5327 28.1774 26.3912 28.1774 26.2481C28.1774 26.1051 28.1491 25.9635 28.0941 25.8315C28.0391 25.6995 27.9585 25.5797 27.8569 25.479C27.7562 25.3774 27.6364 25.2968 27.5044 25.2418C27.3724 25.1868 27.2308 25.1585 27.0878 25.1585C26.9448 25.1585 26.8032 25.1868 26.6711 25.2418C26.5391 25.2968 26.4193 25.3774 26.3186 25.479L23.8378 27.9706L23.8378 15.4148C23.8378 15.1275 23.7236 14.8519 23.5205 14.6488C23.3173 14.4456 23.0417 14.3315 22.7544 14.3315C22.4671 14.3315 22.1916 14.4456 21.9884 14.6488C21.7852 14.8519 21.6711 15.1275 21.6711 15.4148Z" fill="#513070"/>
<rect x="0.5" y="0.5" width="40.1774" height="40.6627" rx="9.5" stroke="#623B85"/>
</svg>
